<?xml version="1.0" encoding="utf-8"?>
<!-- Generator: Adobe Illustrator 24.2.1, SVG Export Plug-In . SVG Version: 6.00 Build 0)  -->
<svg version="1.1" id="レイヤー_1" xmlns="http://www.w3.org/2000/svg" xmlns:xlink="http://www.w3.org/1999/xlink" x="0px"
	 y="0px" viewBox="0 0 1200 300" style="enable-background:new 0 0 1200 300;" xml:space="preserve">
<style type="text/css">
	.st0{clip-path:url(#SVGID_1_);fill:#2FF23C;}
	.st1{clip-path:url(#SVGID_2_);fill:#A5FCAB;}
	.st2{clip-path:url(#SVGID_4_);fill:#E5E5E5;}
	.st3{clip-path:url(#SVGID_5_);fill:#10BE1C;}
	.st4{fill:#FFFFFF;}
</style>
<g>
	<g>
		<g>
			<g>
				<defs>
					<rect id="SVGID_10_" x="11.5" y="49.7" width="100.3" height="100.3"/>
				</defs>
				<clipPath id="SVGID_1_">
					<use xlink:href="#SVGID_10_"  style="overflow:visible;"/>
				</clipPath>
				<path class="st0" d="M171,250.3H52.61c-22.7,0-41.11-18.4-41.11-41.11V90.8c0-22.7,18.4-41.11,41.11-41.11H171
					c22.7,0,41.11,18.4,41.11,41.11V209.2C212.1,231.9,193.7,250.3,171,250.3z"/>
			</g>
			<g>
				<defs>
					<rect id="SVGID_12_" x="111.8" y="49.7" width="100.3" height="100.3"/>
				</defs>
				<clipPath id="SVGID_2_">
					<use xlink:href="#SVGID_12_"  style="overflow:visible;"/>
				</clipPath>
				<path class="st1" d="M171,250.3H52.61c-22.7,0-41.11-18.4-41.11-41.11V90.8c0-22.7,18.4-41.11,41.11-41.11H171
					c22.7,0,41.11,18.4,41.11,41.11V209.2C212.1,231.9,193.7,250.3,171,250.3z"/>
			</g>
			<g>
				<defs>
					<rect id="SVGID_14_" x="111.8" y="150" width="100.3" height="100.3"/>
				</defs>
				<clipPath id="SVGID_4_">
					<use xlink:href="#SVGID_14_"  style="overflow:visible;"/>
				</clipPath>
				<path class="st2" d="M171,250.3H52.61c-22.7,0-41.11-18.4-41.11-41.11V90.8c0-22.7,18.4-41.11,41.11-41.11H171
					c22.7,0,41.11,18.4,41.11,41.11V209.2C212.1,231.9,193.7,250.3,171,250.3z"/>
			</g>
			<g>
				<defs>
					
						<rect id="SVGID_3_" x="11.5" y="150" transform="matrix(-1.836970e-16 1 -1 -1.836970e-16 261.8024 138.5)" width="100.3" height="100.3"/>
				</defs>
				<clipPath id="SVGID_5_">
					<use xlink:href="#SVGID_3_"  style="overflow:visible;"/>
				</clipPath>
				<path class="st3" d="M11.5,209.2V90.8c0-22.7,18.4-41.11,41.11-41.11H171c22.7,0,41.11,18.4,41.11,41.11V209.2
					c0,22.7-18.4,41.11-41.11,41.11H52.61C29.9,250.3,11.5,231.9,11.5,209.2z"/>
			</g>
		</g>
	</g>
	<g>
		<path class="st4" d="M334.46,177.53v26.54h-75.82V95.93h33.2v81.6H334.46z"/>
		<path class="st4" d="M433.73,95.93v71.62c0,13.58-4.03,23.33-12.08,29.27c-8.06,5.94-18.55,8.91-31.49,8.91
			c-13.63,0-24.57-2.85-32.84-8.56c-8.27-5.7-12.4-15-12.4-27.89V95.93h33.75v69.48c0,5.18,1.09,8.95,3.28,11.33
			c2.19,2.38,5.68,3.56,10.47,3.56c4,0,7.28-0.86,9.83-2.58c2.56-1.72,4.08-3.66,4.58-5.82c0.5-2.17,0.75-6.39,0.75-12.68v-63.3
			H433.73z"/>
		<path class="st4" d="M440.3,172.78l30.82-5.55c2.59,8.71,9.24,13.07,19.96,13.07c8.34,0,12.52-2.22,12.52-6.66
			c0-2.32-0.96-4.13-2.89-5.43c-1.93-1.29-5.37-2.44-10.34-3.44c-18.96-3.63-31.14-8.38-36.52-14.25
			c-5.39-5.86-8.08-12.76-8.08-20.68c0-10.2,3.87-18.68,11.61-25.44c7.74-6.76,18.87-10.14,33.39-10.14
			c22.02,0,36.57,8.85,43.65,26.54l-27.49,8.32c-2.85-7.24-8.64-10.85-17.35-10.85c-7.24,0-10.85,2.25-10.85,6.73
			c0,2.01,0.82,3.56,2.46,4.67c1.64,1.11,4.81,2.16,9.51,3.16c12.94,2.74,22.13,5.16,27.58,7.26c5.44,2.11,9.98,5.71,13.62,10.81
			c3.64,5.1,5.46,11.11,5.46,18.04c0,10.94-4.44,19.81-13.31,26.6c-8.87,6.79-20.52,10.19-34.94,10.19
			C462.75,205.73,446.48,194.75,440.3,172.78z"/>
		<path class="st4" d="M641.77,95.93v108.14h-33.19V162h-25.35v42.07h-33.2V95.93h33.2v39.77h25.35V95.93H641.77z"/>
		<path class="st4" d="M660.55,204.07V95.93h54.9c11.41,0,19.73,2.88,24.96,8.64c5.23,5.76,7.84,12.33,7.84,19.73
			c0,5.39-1.52,10.26-4.56,14.62c-3.04,4.36-7.57,7.36-13.59,8.99c14,3.38,20.99,11.78,20.99,25.19c0,8.03-2.47,15.2-7.41,21.51
			c-4.94,6.31-15.49,9.47-31.65,9.47H660.55z M691.13,137.36h15.37c3.85,0,6.58-0.98,8.16-2.93c1.58-1.95,2.38-4.04,2.38-6.26
			c0-6.02-3.7-9.03-11.09-9.03h-14.82V137.36z M691.13,179.99h16.16c4.01,0,6.96-0.99,8.83-2.97c1.87-1.98,2.81-4.21,2.81-6.69
			c0-2.48-0.91-4.77-2.73-6.85c-1.82-2.09-5.16-3.13-10.02-3.13h-15.05V179.99z"/>
		<path class="st4" d="M811.55,205.73c-15.21,0-27.61-5.04-37.2-15.13c-9.59-10.09-14.38-23.58-14.38-40.48
			c0-16.16,4.58-29.51,13.74-40.05s21.88-15.81,38.15-15.81c15.05,0,27.32,4.96,36.8,14.89c9.48,9.93,14.22,23.19,14.22,39.77
			c0,17.17-4.78,30.93-14.34,41.28C838.99,200.56,826.65,205.73,811.55,205.73z M811.39,181.18c5.6,0,9.63-2.44,12.08-7.33
			c2.46-4.89,3.68-13.82,3.68-26.82c0-18.8-5.04-28.2-15.13-28.2c-10.88,0-16.32,10.72-16.32,32.17
			C795.7,171.11,800.93,181.18,811.39,181.18z"/>
		<path class="st4" d="M936.54,204.07l-6.11-21.31h-28.97l-6.49,21.31h-26.95L901.4,95.93h35.1l33.92,108.14H936.54z M907.1,159.15
			h17.5l-8.75-31.37L907.1,159.15z"/>
		<path class="st4" d="M1076.63,204.07h-36.8l-15.8-41.35h-10.47v41.35h-33.19V95.93h56.49c12.46,0,22.14,2.92,29.04,8.75
			c6.89,5.84,10.34,13.53,10.34,23.09c0,6.23-1.27,11.74-3.8,16.52c-2.54,4.78-7.66,8.99-15.37,12.64L1076.63,204.07z
			 M1013.57,139.58h14.18c4.17,0,7.53-0.87,10.06-2.61c2.54-1.74,3.8-4.3,3.8-7.68c0-6.92-4.25-10.38-12.76-10.38h-15.29V139.58z"/>
		<path class="st4" d="M1092.32,204.07V95.93h41.83c18.17,0,31.77,5.39,40.8,16.16c9.03,10.77,13.55,23.24,13.55,37.39
			c0,16.16-4.85,29.3-14.54,39.41c-9.69,10.11-22.28,15.17-37.75,15.17H1092.32z M1125.52,179.19h8.64c5.49,0,10.13-2.67,13.9-8
			c3.78-5.33,5.67-12.6,5.67-21.79c0-7.87-1.68-14.66-5.03-20.36c-3.36-5.7-8.2-8.56-14.54-8.56h-8.64V179.19z"/>
	</g>
</g>
</svg>
