<?xml version="1.0" encoding="utf-8"?>
<!-- Generator: Adobe Illustrator 24.2.1, SVG Export Plug-In . SVG Version: 6.00 Build 0)  -->
<svg version="1.1" id="レイヤー_1" xmlns="http://www.w3.org/2000/svg" xmlns:xlink="http://www.w3.org/1999/xlink" x="0px"
	 y="0px" viewBox="0 0 1000 500" style="enable-background:new 0 0 1000 500;" xml:space="preserve">
<style type="text/css">
	.st0{clip-path:url(#SVGID_2_);fill:#2FF23C;}
	.st1{clip-path:url(#SVGID_5_);fill:#A5FCAB;}
	.st2{clip-path:url(#SVGID_7_);fill:#E5E5E5;}
	.st3{clip-path:url(#SVGID_8_);fill:#10BE1C;}
</style>
<g>
	<g>
		<g>
			<defs>
				<rect id="SVGID_1_" x="6" y="163.5" width="86.5" height="86.5"/>
			</defs>
			<clipPath id="SVGID_2_">
				<use xlink:href="#SVGID_1_"  style="overflow:visible;"/>
			</clipPath>
			<path class="st0" d="M137.89,336.5H47.11C24.4,336.5,6,318.1,6,295.39v-90.79c0-22.7,18.4-41.11,41.11-41.11h90.79
				c22.7,0,41.11,18.4,41.11,41.11v90.79C179,318.1,160.6,336.5,137.89,336.5z"/>
		</g>
		<g>
			<defs>
				<rect id="SVGID_4_" x="92.5" y="163.5" width="86.5" height="86.5"/>
			</defs>
			<clipPath id="SVGID_5_">
				<use xlink:href="#SVGID_4_"  style="overflow:visible;"/>
			</clipPath>
			<path class="st1" d="M137.89,336.5H47.11C24.4,336.5,6,318.1,6,295.39v-90.79c0-22.7,18.4-41.11,41.11-41.11h90.79
				c22.7,0,41.11,18.4,41.11,41.11v90.79C179,318.1,160.6,336.5,137.89,336.5z"/>
		</g>
		<g>
			<defs>
				<rect id="SVGID_6_" x="92.5" y="250" width="86.5" height="86.5"/>
			</defs>
			<clipPath id="SVGID_7_">
				<use xlink:href="#SVGID_6_"  style="overflow:visible;"/>
			</clipPath>
			<path class="st2" d="M137.89,336.5H47.11C24.4,336.5,6,318.1,6,295.39v-90.79c0-22.7,18.4-41.11,41.11-41.11h90.79
				c22.7,0,41.11,18.4,41.11,41.11v90.79C179,318.1,160.6,336.5,137.89,336.5z"/>
		</g>
		<g>
			<defs>
				
					<rect id="SVGID_3_" x="6" y="250" transform="matrix(-1.836970e-16 1 -1 -1.836970e-16 342.5 244)" width="86.5" height="86.5"/>
			</defs>
			<clipPath id="SVGID_8_">
				<use xlink:href="#SVGID_3_"  style="overflow:visible;"/>
			</clipPath>
			<path class="st3" d="M6,295.39v-90.79c0-22.7,18.4-41.11,41.11-41.11h90.79c22.7,0,41.11,18.4,41.11,41.11v90.79
				c0,22.7-18.4,41.11-41.11,41.11H47.11C24.4,336.5,6,318.1,6,295.39z"/>
		</g>
	</g>
</g>
<g>
	<path d="M255.52,273.74v22.89h-65.39v-93.26h28.63v70.37H255.52z"/>
	<path d="M341.12,203.37v61.76c0,11.71-3.47,20.12-10.42,25.24c-6.95,5.13-16,7.69-27.16,7.69c-11.75,0-21.19-2.46-28.32-7.38
		c-7.13-4.92-10.69-12.94-10.69-24.05v-63.27h29.11v59.92c0,4.46,0.94,7.72,2.83,9.77c1.89,2.05,4.89,3.07,9.03,3.07
		c3.45,0,6.28-0.74,8.48-2.22c2.2-1.48,3.52-3.15,3.95-5.02s0.65-5.51,0.65-10.93v-54.59H341.12z"/>
	<path d="M346.79,269.64l26.58-4.78c2.23,7.52,7.97,11.27,17.22,11.27c7.2,0,10.79-1.91,10.79-5.74c0-2-0.83-3.56-2.49-4.68
		c-1.66-1.12-4.64-2.11-8.92-2.97c-16.35-3.13-26.85-7.23-31.5-12.29c-4.64-5.06-6.97-11-6.97-17.84c0-8.79,3.34-16.11,10.01-21.94
		c6.67-5.83,16.27-8.75,28.8-8.75c18.99,0,31.54,7.63,37.65,22.89L404.25,232c-2.46-6.24-7.45-9.36-14.96-9.36
		c-6.24,0-9.36,1.94-9.36,5.81c0,1.73,0.71,3.07,2.12,4.03c1.41,0.96,4.15,1.87,8.2,2.73c11.16,2.36,19.09,4.45,23.78,6.26
		c4.69,1.82,8.61,4.92,11.75,9.32s4.71,9.58,4.71,15.55c0,9.43-3.83,17.08-11.48,22.94c-7.65,5.86-17.7,8.79-30.13,8.79
		C366.15,298.07,352.12,288.59,346.79,269.64z"/>
	<path d="M520.54,203.37v93.26h-28.63v-36.28h-21.86v36.28h-28.63v-93.26h28.63v34.3h21.86v-34.3H520.54z"/>
	<path d="M536.73,296.63v-93.26h47.35c9.84,0,17.01,2.48,21.52,7.45c4.51,4.96,6.76,10.64,6.76,17.01c0,4.65-1.31,8.85-3.93,12.61
		c-2.62,3.76-6.52,6.34-11.72,7.75c12.07,2.92,18.11,10.16,18.11,21.73c0,6.92-2.13,13.11-6.39,18.55
		c-4.26,5.44-13.36,8.16-27.29,8.16H536.73z M563.1,239.1h13.25c3.32,0,5.67-0.84,7.04-2.53c1.37-1.68,2.05-3.48,2.05-5.4
		c0-5.19-3.19-7.79-9.57-7.79H563.1V239.1z M563.1,275.86h13.94c3.46,0,6-0.85,7.62-2.56c1.62-1.71,2.43-3.63,2.43-5.77
		c0-2.14-0.79-4.11-2.36-5.91c-1.57-1.8-4.45-2.7-8.64-2.7H563.1V275.86z"/>
	<path d="M666.96,298.07c-13.12,0-23.81-4.35-32.08-13.05c-8.27-8.7-12.4-20.34-12.4-34.91c0-13.94,3.95-25.45,11.85-34.54
		s18.87-13.63,32.9-13.63c12.98,0,23.56,4.28,31.74,12.84c8.17,8.56,12.26,20,12.26,34.3c0,14.8-4.12,26.67-12.37,35.6
		C690.62,293.6,679.98,298.07,666.96,298.07z M666.82,276.89c4.83,0,8.3-2.11,10.42-6.32s3.18-11.92,3.18-23.13
		c0-16.22-4.35-24.32-13.05-24.32c-9.38,0-14.07,9.25-14.07,27.74C653.29,268.21,657.8,276.89,666.82,276.89z"/>
	<path d="M774.75,296.63l-5.27-18.38h-24.98l-5.6,18.38h-23.24l28.79-93.26h30.27l29.25,93.26H774.75z M749.36,257.89h15.09
		l-7.55-27.05L749.36,257.89z"/>
	<path d="M895.56,296.63h-31.74l-13.62-35.66h-9.03v35.66h-28.63v-93.26h48.71c10.75,0,19.1,2.52,25.04,7.55
		c5.94,5.03,8.92,11.67,8.92,19.92c0,5.38-1.09,10.12-3.28,14.25c-2.19,4.12-6.6,7.75-13.25,10.9L895.56,296.63z M841.18,241.02
		h12.23c3.6,0,6.49-0.75,8.68-2.25c2.19-1.5,3.28-3.71,3.28-6.63c0-5.97-3.67-8.95-11-8.95h-13.19V241.02z"/>
	<path d="M909.09,296.63v-93.26h36.07c15.67,0,27.4,4.65,35.19,13.94c7.79,9.29,11.68,20.04,11.68,32.25
		c0,13.94-4.18,25.27-12.54,33.99c-8.36,8.72-19.21,13.08-32.56,13.08H909.09z M937.72,275.18h7.45c4.74,0,8.73-2.3,11.99-6.9
		c3.26-4.6,4.89-10.86,4.89-18.79c0-6.79-1.45-12.64-4.34-17.56c-2.89-4.92-7.07-7.38-12.54-7.38h-7.45V275.18z"/>
</g>
</svg>
